<svg xmlns="http://www.w3.org/2000/svg">
<style>
g{display:none}
g:target{display:inline}
</style>
<g id="24-7">
<path  stroke="#121417" stroke-width="2" d="M1.217 1.473h0.216l-0.018 0.086h-0.339c0.008 -0.036 0.023 -0.068 0.043 -0.097 0.021 -0.033 0.061 -0.068 0.12 -0.105 0.052 -0.032 0.086 -0.055 0.102 -0.069 0.025 -0.022 0.04 -0.045 0.045 -0.071 0.005 -0.021 0.002 -0.038 -0.006 -0.052 -0.008 -0.014 -0.024 -0.021 -0.045 -0.021 -0.03 0 -0.052 0.011 -0.068 0.033 -0.009 0.013 -0.017 0.033 -0.024 0.061h-0.095c0.01 -0.042 0.025 -0.076 0.044 -0.102 0.036 -0.05 0.088 -0.074 0.154 -0.074 0.052 0 0.091 0.015 0.116 0.044 0.025 0.029 0.032 0.068 0.022 0.115a0.195 0.195 0 0 1 -0.053 0.098c-0.018 0.019 -0.047 0.04 -0.084 0.063l-0.045 0.028a1.087 1.087 0 0 0 -0.058 0.038 0.166 0.166 0 0 0 -0.028 0.027zm0.267 -0.021 0.018 -0.085 0.246 -0.301h0.109l-0.066 0.309h0.056l-0.016 0.076h-0.056l-0.022 0.107h-0.095l0.023 -0.107 -0.196 0zm0.088 -0.076h0.124l0.045 -0.214 -0.169 0.214zm0.051 0.9h0.001v0.167a0.177 0.177 0 0 1 -0.177 0.177H0.279a0.178 0.178 0 0 1 -0.177 -0.177V0.177C0.102 0.08 0.182 0 0.279 0H1.447c0.097 0 0.177 0.08 0.177 0.177l-0.001 0.157c0.5 0.041 0.895 0.461 0.895 0.971 0 0.51 -0.395 0.93 -0.895 0.971zM0.655 0.149c0 0.012 0.01 0.021 0.021 0.021h0.374a0.021 0.021 0 1 0 0 -0.043H0.676a0.022 0.022 0 0 0 -0.021 0.022zm0.297 2.294c0 -0.049 -0.04 -0.088 -0.089 -0.088a0.088 0.088 0 1 0 0.089 0.088zM2.278 1.305c0 -0.405 -0.33 -0.735 -0.735 -0.735 -0.016 0 -0.029 0.001 -0.045 0.002v-0.24c0.001 0 0 0 0 0v-0.052H0.225v2.012H1.501v-0.014l0 0c-0.518 -0.022 -0.932 -0.45 -0.932 -0.973 0 -0.006 0 -0.011 0.001 -0.017h-0.147l0.262 -0.262 0.262 0.262h-0.137c0 0.006 -0.001 0.011 -0.001 0.017 0 0.405 0.33 0.735 0.735 0.735 0.406 0 0.735 -0.33 0.735 -0.735z"/>
</g>
<g id="radar"><path fill="#2e2f42" d="m30.773 22.098-8.443-8.505.937-4.615c.242.094.499.144.758.146h.006a2.159 2.159 0 1 0-2.008-1.435l-4.96.605L8.972.161a.534.534 0 0 0-.377-.16.532.532 0 0 0-.373.155L6.709 1.66a.534.534 0 0 0 0 .754l.814.826a14.943 14.943 0 0 0 2.519 17.663.513.513 0 0 0 .146.098c-.034.18-.051.364-.052.547v6.187h-6.4a2.67 2.67 0 0 0-2.667 2.667v1.067c0 .295.239.533.533.533h24.533a.533.533 0 0 0 .533-.533v-1.067a2.67 2.67 0 0 0-2.667-2.667h-6.4v-2.742a15.09 15.09 0 0 0 3.049.32 14.854 14.854 0 0 0 7.04-1.783l.818.823a.534.534 0 0 0 .377.16.532.532 0 0 0 .373-.155l1.513-1.504a.534.534 0 0 0 0-.754zM23.28 6.233a1.067 1.067 0 1 1 .753 1.822h-.003a1.067 1.067 0 0 1-.747-1.823h-.002zm-1.256 3.505-.598 2.946-1.175-1.182 1.774-1.763zm-.605-.902-1.92 1.909-1.485-1.493 3.405-.415zM24.004 28.8a1.6 1.6 0 0 1 1.6 1.6v.533H2.137V30.4a1.6 1.6 0 0 1 1.6-1.6h20.267zm-7.467-2.133v1.067h-5.333v-1.067h5.333zM11.204 25.6v-4.053c0-1.294 1.196-2.347 2.667-2.347s2.667 1.053 2.667 2.347V25.6h-5.333zm6.4-1.696v-2.357c0-1.882-1.675-3.413-3.733-3.413a3.8 3.8 0 0 0-3.281 1.786A13.87 13.87 0 0 1 8.311 4.033l18.602 18.708a13.818 13.818 0 0 1-9.309 1.163zm11.289-.684L7.836 2.039l.755-.752 7.935 7.98c.004 0 .006.007.01.01l13.115 13.191-.757.752z" style="fill:var(--color2, #2e2f42)"/><path fill="#4d5ae5" d="M13.876 20.267h-.005a1.6 1.6 0 1 0-.004 3.2h.005a1.6 1.6 0 1 0 .004-3.2zm.373 1.978a.534.534 0 0 1-.752-.756.534.534 0 0 1 .373-.155.534.534 0 0 1 .374.911h.005z" style="fill:var(--color3, #4d5ae5)"/></g>
<g id="" viewBox="0 0 64 64" >
</g>
<g id="" viewBox="0 0 64 64" >
</g>
<defs>
<symbol id="logo" viewBox="0 0 122 92">
<path fill-rule="evenodd" d="M10.17,34.23c-10.98-5.58-9.72-11.8,1.31-11.15l2.47,4.63l5.09-15.83C21.04,5.65,24.37,0,30.9,0H96 c6.53,0,10.29,5.54,11.87,11.87l3.82,15.35l2.2-4.14c11.34-0.66,12.35,5.93,0.35,11.62l1.95,2.99c7.89,8.11,7.15,22.45,5.92,42.48 v8.14c0,2.04-1.67,3.71-3.71,3.71h-15.83c-2.04,0-3.71-1.67-3.71-3.71v-4.54H24.04v4.54c0,2.04-1.67,3.71-3.71,3.71H4.5 c-2.04,0-3.71-1.67-3.71-3.71V78.2c0-0.2,0.02-0.39,0.04-0.58C-0.37,62.25-2.06,42.15,10.17,34.23L10.17,34.23z M30.38,58.7 l-14.06-1.77c-3.32-0.37-4.21,1.03-3.08,3.89l1.52,3.69c0.49,0.95,1.14,1.64,1.9,2.12c0.89,0.55,1.96,0.82,3.15,0.87l12.54,0.1 c3.03-0.01,4.34-1.22,3.39-4C34.96,60.99,33.18,59.35,30.38,58.7L30.38,58.7z M54.38,52.79h14.4c0.85,0,1.55,0.7,1.55,1.55l0,0 c0,0.85-0.7,1.55-1.55,1.55h-14.4c-0.85,0-1.55-0.7-1.55-1.55l0,0C52.82,53.49,53.52,52.79,54.38,52.79L54.38,52.79z M89.96,73.15 h14.4c0.85,0,1.55,0.7,1.55,1.55l0,0c0,0.85-0.7,1.55-1.55,1.55h-14.4c-0.85,0-1.55-0.7-1.55-1.55l0,0 C88.41,73.85,89.1,73.15,89.96,73.15L89.96,73.15z M92.5,58.7l14.06-1.77c3.32-0.37,4.21,1.03,3.08,3.89l-1.52,3.69 c-0.49,0.95-1.14,1.64-1.9,2.12c-0.89,0.55-1.96,0.82-3.15,0.87l-12.54,0.1c-3.03-0.01-4.34-1.22-3.39-4 C87.92,60.99,89.7,59.35,92.5,58.7L92.5,58.7z M18.41,73.15h14.4c0.85,0,1.55,0.7,1.55,1.55l0,0c0,0.85-0.7,1.55-1.55,1.55h-14.4 c-0.85,0-1.55-0.7-1.55-1.55l0,0C16.86,73.85,17.56,73.15,18.41,73.15L18.41,73.15z M19.23,31.2h86.82l-3.83-15.92 c-1.05-4.85-4.07-9.05-9.05-9.05H33.06c-4.97,0-7.52,4.31-9.05,9.05L19.23,31.2v0.75V31.2L19.23,31.2z"/>
</symbol>
<symbol id="heart" viewBox="0 0 18 18">
<path d="M15.6301 3.45753C15.247 3.07428 14.7922 2.77026 14.2916 2.56284C13.791 2.35542 13.2545 2.24866 12.7126 2.24866C12.1707 2.24866 11.6342 2.35542 11.1336 2.56284C10.633 2.77026 10.1782 3.07428 9.79509 3.45753L9.00009 4.25253L8.20509 3.45753C7.43132 2.68376 6.38186 2.24906 5.28759 2.24906C4.19331 2.24906 3.14386 2.68376 2.37009 3.45753C1.59632 4.2313 1.16162 5.28075 1.16162 6.37503C1.16162 7.4693 1.59632 8.51876 2.37009 9.29253L3.16509 10.0875L9.00009 15.9225L14.8351 10.0875L15.6301 9.29253C16.0133 8.90946 16.3174 8.45464 16.5248 7.95404C16.7322 7.45345 16.839 6.91689 16.839 6.37503C16.839 5.83316 16.7322 5.2966 16.5248 4.79601C16.3174 4.29542 16.0133 3.84059 15.6301 3.45753Z" stroke-width="1.5" stroke-linecap="round" stroke-linejoin="round"/>
</symbol>
<symbol id="down" viewBox="0 0 20 20">
<path d="M5 7.5L10 12.5L15 7.5" fill="none" stroke="#121417" stroke-width="2" stroke-linecap="round" stroke-linejoin="round"/>
</symbol>
<symbol id="up" viewBox="0 0 20 20">
<path d="M5 12.5L10 7.5L15 12.5" fill="none" stroke="#121417" stroke-width="2" stroke-linecap="round" stroke-linejoin="round"/>
</symbol>
<symbol id="close" viewBox="0 0 24 24">
<path d="M18 6L6 18" stroke="#121417" stroke-width="1.8" stroke-linecap="round" stroke-linejoin="round"/>
<path d="M6 6L18 18" stroke="#121417" stroke-width="1.8" stroke-linecap="round" stroke-linejoin="round"/>
</symbol>
<symbol id="car" viewBox="0 0 102 40">
<g transform="translate(2 1)" fill="#3470FF33" fill-rule="evenodd" stroke-linecap="round" stroke-linejoin="round">
<path class="car__body" d="M47.293 2.375C52.927.792 54.017.805 54.017.805c2.613-.445 6.838-.337 9.42.237l8.381 1.863c2.59.576 6.164 2.606 7.98 4.531l6.348 6.732 6.245 1.877c3.098.508 5.609 3.431 5.609 6.507v4.206c0 .29-2.536 4.189-5.687 4.189H36.808c-2.655 0-4.34-2.1-3.688-4.67 0 0 3.71-19.944 14.173-23.902zM36.5 15.5h54.01" stroke-width="3"/>
<ellipse class="car__wheel--left" stroke-width="3.2" fill="#FFF" cx="83.493" cy="30.25" rx="6.922" ry="6.808"/>
<ellipse class="car__wheel--right" stroke-width="3.2" fill="#FFF" cx="46.511" cy="30.25" rx="6.922" ry="6.808"/>
<path class="car__line car__line--top" d="M22.5 16.5H2.475" stroke-width="3"/>
<path class="car__line car__line--middle" d="M20.5 23.5H.4755" stroke-width="3"/>
<path class="car__line car__line--bottom" d="M25.5 9.5h-19" stroke-width="3"/>
</g>
</symbol>
</defs>
</svg>