<svg xmlns="http://www.w3.org/2000/svg">
<defs>
<symbol id="logo" viewBox="0 0 122 92">
<path fill-rule="evenodd" d="M10.17,34.23c-10.98-5.58-9.72-11.8,1.31-11.15l2.47,4.63l5.09-15.83C21.04,5.65,24.37,0,30.9,0H96 c6.53,0,10.29,5.54,11.87,11.87l3.82,15.35l2.2-4.14c11.34-0.66,12.35,5.93,0.35,11.62l1.95,2.99c7.89,8.11,7.15,22.45,5.92,42.48 v8.14c0,2.04-1.67,3.71-3.71,3.71h-15.83c-2.04,0-3.71-1.67-3.71-3.71v-4.54H24.04v4.54c0,2.04-1.67,3.71-3.71,3.71H4.5 c-2.04,0-3.71-1.67-3.71-3.71V78.2c0-0.2,0.02-0.39,0.04-0.58C-0.37,62.25-2.06,42.15,10.17,34.23L10.17,34.23z M30.38,58.7 l-14.06-1.77c-3.32-0.37-4.21,1.03-3.08,3.89l1.52,3.69c0.49,0.95,1.14,1.64,1.9,2.12c0.89,0.55,1.96,0.82,3.15,0.87l12.54,0.1 c3.03-0.01,4.34-1.22,3.39-4C34.96,60.99,33.18,59.35,30.38,58.7L30.38,58.7z M54.38,52.79h14.4c0.85,0,1.55,0.7,1.55,1.55l0,0 c0,0.85-0.7,1.55-1.55,1.55h-14.4c-0.85,0-1.55-0.7-1.55-1.55l0,0C52.82,53.49,53.52,52.79,54.38,52.79L54.38,52.79z M89.96,73.15 h14.4c0.85,0,1.55,0.7,1.55,1.55l0,0c0,0.85-0.7,1.55-1.55,1.55h-14.4c-0.85,0-1.55-0.7-1.55-1.55l0,0 C88.41,73.85,89.1,73.15,89.96,73.15L89.96,73.15z M92.5,58.7l14.06-1.77c3.32-0.37,4.21,1.03,3.08,3.89l-1.52,3.69 c-0.49,0.95-1.14,1.64-1.9,2.12c-0.89,0.55-1.96,0.82-3.15,0.87l-12.54,0.1c-3.03-0.01-4.34-1.22-3.39-4 C87.92,60.99,89.7,59.35,92.5,58.7L92.5,58.7z M18.41,73.15h14.4c0.85,0,1.55,0.7,1.55,1.55l0,0c0,0.85-0.7,1.55-1.55,1.55h-14.4 c-0.85,0-1.55-0.7-1.55-1.55l0,0C16.86,73.85,17.56,73.15,18.41,73.15L18.41,73.15z M19.23,31.2h86.82l-3.83-15.92 c-1.05-4.85-4.07-9.05-9.05-9.05H33.06c-4.97,0-7.52,4.31-9.05,9.05L19.23,31.2v0.75V31.2L19.23,31.2z"/>
</symbol>
<symbol id="heart" viewBox="0 0 18 18">
<path d="M15.6301 3.45753C15.247 3.07428 14.7922 2.77026 14.2916 2.56284C13.791 2.35542 13.2545 2.24866 12.7126 2.24866C12.1707 2.24866 11.6342 2.35542 11.1336 2.56284C10.633 2.77026 10.1782 3.07428 9.79509 3.45753L9.00009 4.25253L8.20509 3.45753C7.43132 2.68376 6.38186 2.24906 5.28759 2.24906C4.19331 2.24906 3.14386 2.68376 2.37009 3.45753C1.59632 4.2313 1.16162 5.28075 1.16162 6.37503C1.16162 7.4693 1.59632 8.51876 2.37009 9.29253L3.16509 10.0875L9.00009 15.9225L14.8351 10.0875L15.6301 9.29253C16.0133 8.90946 16.3174 8.45464 16.5248 7.95404C16.7322 7.45345 16.839 6.91689 16.839 6.37503C16.839 5.83316 16.7322 5.2966 16.5248 4.79601C16.3174 4.29542 16.0133 3.84059 15.6301 3.45753Z" stroke="white" stroke-opacity="0.8" stroke-width="1.5" stroke-linecap="round" stroke-linejoin="round"/>
</symbol>
<symbol id="down" viewBox="0 0 20 20">
<path d="M5 7.5L10 12.5L15 7.5" fill="none" stroke="#121417" stroke-width="2" stroke-linecap="round" stroke-linejoin="round"/>
</symbol>
<symbol id="up" viewBox="0 0 20 20">
<path d="M5 12.5L10 7.5L15 12.5" fill="none" stroke="#121417" stroke-width="2" stroke-linecap="round" stroke-linejoin="round"/>
</symbol>
</defs></svg>