<svg xmlns="http://www.w3.org/2000/svg" viewBox="0 0 40 40">
<style>
g{display:none}
g:target{display:inline}
</style>
<g id="24_7" fill="#757575">
<path d="M15.216,18.414h2.701l-0.227,1.072h-4.236c0.104-0.444,0.285-0.851,0.541-1.217c0.262-0.414,0.764-0.85,1.506-1.311 c0.646-0.4,1.069-0.689,1.272-0.861c0.31-0.271,0.499-0.566,0.567-0.89c0.058-0.261,0.031-0.479-0.078-0.652 c-0.106-0.174-0.297-0.261-0.567-0.261c-0.369,0-0.65,0.139-0.845,0.414c-0.11,0.159-0.209,0.414-0.295,0.761h-1.183 c0.131-0.527,0.315-0.952,0.556-1.275c0.455-0.619,1.097-0.928,1.924-0.928c0.655,0,1.138,0.182,1.446,0.544 c0.312,0.364,0.401,0.844,0.272,1.441c-0.098,0.457-0.317,0.865-0.666,1.219c-0.229,0.237-0.582,0.502-1.055,0.791l-0.559,0.346 c-0.351,0.217-0.592,0.373-0.727,0.471C15.437,18.175,15.319,18.287,15.216,18.414z M18.553,18.154l0.228-1.062l3.072-3.757h1.364 l-0.823,3.867h0.7l-0.199,0.95h-0.7l-0.28,1.332h-1.19l0.282-1.332L18.553,18.154L18.553,18.154z M19.656,17.203h1.55l0.566-2.673 L19.656,17.203z M20.292,28.455L20.292,28.455c0.004,0,0.006,0,0.01,0v2.087c0,1.216-0.994,2.212-2.211,2.212H3.486 c-1.217,0-2.212-0.996-2.212-2.212V2.211C1.274,0.994,2.269,0,3.486,0H18.09c1.217,0,2.211,0.994,2.211,2.211L20.29,4.174 c6.25,0.517,11.19,5.759,11.19,12.141C31.48,22.695,26.54,27.938,20.292,28.455z M8.183,1.862c0,0.148,0.12,0.267,0.268,0.267 h4.672c0.148,0,0.269-0.118,0.269-0.267s-0.119-0.269-0.269-0.269H8.451C8.303,1.594,8.183,1.714,8.183,1.862z M11.894,30.542 c0-0.612-0.496-1.104-1.107-1.104c-0.609,0-1.104,0.492-1.104,1.104c0,0.61,0.495,1.106,1.104,1.106 C11.398,31.648,11.894,31.152,11.894,30.542z M28.48,16.314c0-5.067-4.123-9.19-9.188-9.19c-0.195,0-0.367,0.018-0.559,0.029v-3 c0.007,0-0.006,0,0-0.001V3.507H2.813v25.152H18.76V28.48l-0.006-0.002c-6.473-0.281-11.656-5.621-11.656-12.164 c0-0.069,0.006-0.139,0.011-0.207h-1.84l3.277-3.276l3.274,3.274h-1.712c-0.005,0.069-0.011,0.14-0.011,0.209 c0,5.068,4.123,9.191,9.19,9.191C24.356,25.506,28.48,21.383,28.48,16.314z"/>
</g>
<g id="advice" fill="#757575">
<path d="M26.059 0.069c-5.775 0 -10.611 3.333 -11.974 7.832 1.144 0.016 2.206 0.237 3.157 0.643h15.244a0.636 0.636 0 0 1 0.636 0.636 0.636 0.636 0 0 1 -0.636 0.636H19.258c0.774 0.682 1.411 1.53 1.89 2.51h11.338a0.636 0.636 0 0 1 0.636 0.636 0.636 0.636 0 0 1 -0.636 0.636H21.65c0.316 1.001 0.493 2.101 0.493 3.286 0 1.104 -0.144 2.232 -0.403 3.331a14.119 14.119 0 0 0 1.358 0.352l-0.263 3.058c-0.076 0.878 0.995 1.362 1.604 0.725l3.439 -3.595c5.968 -0.742 10.552 -5.055 10.552 -10.281C38.43 4.728 32.892 0.069 26.059 0.069z"/><path d="M27.125 33.743c-1.009 -2.972 -3.348 -5.199 -6.214 -6.158a0.705 0.705 0 0 0 -0.86 0.366l-4.033 8.5 0.794 -4.397a1.686 1.686 0 0 0 -0.325 -1.329l-2.106 -2.723a0.528 0.528 0 0 0 -0.836 0l-2.106 2.723a1.686 1.686 0 0 0 -0.325 1.329l0.793 4.393 -4.032 -8.496a0.703 0.703 0 0 0 -0.86 -0.365c-2.865 0.959 -5.204 3.186 -6.214 6.158l-0.699 2.057a1.939 1.939 0 0 0 0.26 1.752 1.939 1.939 0 0 0 1.576 0.809h24.05a1.939 1.939 0 0 0 1.576 -0.809 1.939 1.939 0 0 0 0.26 -1.752l-0.699 -2.057z"/><path d="M13.963 26.508c3.464 0 6.271 -5.012 6.271 -9.624s-2.808 -7.08 -6.271 -7.08c-3.462 0 -6.27 2.467 -6.27 7.08s2.808 9.624 6.27 9.624z"/>
</g>
<g id="travel"  fill="#757575">
<path cx="193.31" cy="51.905" r="36.358" d="M18.373 4.152A2.909 2.909 0 0 1 15.465 7.061A2.909 2.909 0 0 1 12.556 4.152A2.909 2.909 0 0 1 18.373 4.152z"/><path d="M13.091 29.829c-0.405 0.278 -0.878 0.436 -1.377 0.456v4.614c0 0.93 0.754 1.684 1.684 1.684 0.93 0 1.684 -0.754 1.684 -1.684v-3.189c-0.998 -0.138 -1.798 -0.902 -1.991 -1.881z"/><path d="M15.809 34.899c0 0.93 0.754 1.684 1.684 1.684 0.93 0 1.684 -0.754 1.684 -1.684v-3.166h-3.368v3.166z"/><path d="M5.671 6.908A1.404 1.404 0 0 0 6.228 7.496l5.485 3.136v5.754c1.45 0.607 2.476 2.038 2.484 3.703l0.007 1.443a2.34 2.34 0 0 1 1.074 -0.327v-0.162c0 -1.352 1.1 -2.452 2.453 -2.452h1.416v-7.635h1.055a126.863 126.863 0 0 0 0.174 -0.503c0.343 -0.998 0.784 -1.745 1.266 -2.304h-6.196l-0.001 0 -2.421 0 -5.037 -2.879 -2.262 -4.496c-0.348 -0.692 -1.192 -0.971 -1.885 -0.623 -0.692 0.348 -0.971 1.192 -0.623 1.885l2.453 4.874z"/><path d="M36.376 20.121c-0.023 -0.062 -2.285 -6.25 -3.281 -9.149 -0.643 -1.87 -1.72 -2.818 -3.203 -2.818h-4.8c-1.772 0 -2.681 1.306 -3.253 2.964 -0.936 2.707 -3.263 9.108 -3.263 9.108 -0.68 0 -0.856 -0.011 -0.991 0.014 -0.006 0.001 -0.013 0.002 -0.019 0.003 -0.374 0.076 -0.653 0.407 -0.653 0.801v1.794h-1.507a0.726 0.726 0 0 0 -0.726 0.726v5.809a0.726 0.726 0 0 0 0.726 0.726H24.252a0.726 0.726 0 0 0 0.726 -0.726v-5.809a0.726 0.726 0 0 0 -0.726 -0.726h-1.507v-1.794c0 -0.452 -0.366 -0.818 -0.818 -0.818h-0.408c0.73 -2.006 1.73 -4.769 2.444 -6.79 -0.069 0.567 0.073 -0.22 -1.012 5.38 0.842 0.389 1.428 1.241 1.428 2.228v0.162c1.243 0.067 2.233 1.099 2.233 2.358v5.809c0 1.302 -1.059 2.361 -2.361 2.361h-0.443v3.188c0 0.918 0.744 1.662 1.662 1.662s1.662 -0.744 1.662 -1.662V24.668h0.718v10.253c0 0.918 0.744 1.662 1.662 1.662 0.918 0 1.662 -0.744 1.662 -1.662V24.668h1.057a0.77 0.77 0 0 0 0.594 -0.28 0.771 0.771 0 0 0 0.162 -0.637c-2.128 -10.989 -1.893 -9.707 -1.968 -10.316 1.109 3.141 2.734 7.585 2.753 7.638 0.263 0.72 1.06 1.088 1.777 0.825 0.719 -0.263 1.088 -1.058 0.825 -1.777zM19.91 21.983c0.197 0 0.389 -0.043 0.566 -0.122h0.635v0.976h-2.562v-0.976h0.797c0.179 0.08 0.36 0.122 0.564 0.122z"/><path d="M11.612 28.688c0.568 -0.003 1.026 -0.466 1.023 -1.034l-0.038 -7.557c-0.007 -1.335 -1.099 -2.422 -2.434 -2.422H5.539l-2.749 -1.049 -0.625 -3.53c-0.099 -0.561 -0.639 -0.932 -1.192 -0.834C0.413 12.361 0.04 12.895 0.139 13.455l0.727 4.104a1.028 1.028 0 0 0 0.646 0.782l3.15 1.202 0 15.807c0 0.682 0.553 1.234 1.234 1.234s1.234 -0.553 1.234 -1.234c0 -8.615 0.001 -7.72 -0.002 -7.816h0.536c-0.002 0.091 -0.002 -0.742 -0.002 7.816 0 0.682 0.553 1.234 1.234 1.234s1.234 -0.553 1.234 -1.234v-5.516l-0.022 -9.724a0.215 0.215 0 0 1 0.43 -0.002l0.038 7.557c0.003 0.566 0.463 1.023 1.028 1.023l0.005 0z"/><path d="M4.75 14.224a2.649 2.649 0 0 0 0.581 1.659c0.488 0.611 1.238 1.002 2.08 1.002 0.75 0 1.428 -0.311 1.911 -0.81 0.464 -0.479 0.75 -1.131 0.75 -1.851 0 -1.47 -1.191 -2.661 -2.661 -2.661s-2.661 1.191 -2.661 2.661z"/><path d="M27.492 7.238c1.578 0 2.871 -1.279 2.871 -2.871 0 -1.586 -1.285 -2.871 -2.871 -2.871 -1.586 0 -2.871 1.285 -2.871 2.871 0 1.586 1.288 2.871 2.871 2.871z"/>
</g>
<defs>
<symbol id="logo" viewBox="0 0 122 92">
<path fill-rule="evenodd" d="M10.17,34.23c-10.98-5.58-9.72-11.8,1.31-11.15l2.47,4.63l5.09-15.83C21.04,5.65,24.37,0,30.9,0H96 c6.53,0,10.29,5.54,11.87,11.87l3.82,15.35l2.2-4.14c11.34-0.66,12.35,5.93,0.35,11.62l1.95,2.99c7.89,8.11,7.15,22.45,5.92,42.48 v8.14c0,2.04-1.67,3.71-3.71,3.71h-15.83c-2.04,0-3.71-1.67-3.71-3.71v-4.54H24.04v4.54c0,2.04-1.67,3.71-3.71,3.71H4.5 c-2.04,0-3.71-1.67-3.71-3.71V78.2c0-0.2,0.02-0.39,0.04-0.58C-0.37,62.25-2.06,42.15,10.17,34.23L10.17,34.23z M30.38,58.7 l-14.06-1.77c-3.32-0.37-4.21,1.03-3.08,3.89l1.52,3.69c0.49,0.95,1.14,1.64,1.9,2.12c0.89,0.55,1.96,0.82,3.15,0.87l12.54,0.1 c3.03-0.01,4.34-1.22,3.39-4C34.96,60.99,33.18,59.35,30.38,58.7L30.38,58.7z M54.38,52.79h14.4c0.85,0,1.55,0.7,1.55,1.55l0,0 c0,0.85-0.7,1.55-1.55,1.55h-14.4c-0.85,0-1.55-0.7-1.55-1.55l0,0C52.82,53.49,53.52,52.79,54.38,52.79L54.38,52.79z M89.96,73.15 h14.4c0.85,0,1.55,0.7,1.55,1.55l0,0c0,0.85-0.7,1.55-1.55,1.55h-14.4c-0.85,0-1.55-0.7-1.55-1.55l0,0 C88.41,73.85,89.1,73.15,89.96,73.15L89.96,73.15z M92.5,58.7l14.06-1.77c3.32-0.37,4.21,1.03,3.08,3.89l-1.52,3.69 c-0.49,0.95-1.14,1.64-1.9,2.12c-0.89,0.55-1.96,0.82-3.15,0.87l-12.54,0.1c-3.03-0.01-4.34-1.22-3.39-4 C87.92,60.99,89.7,59.35,92.5,58.7L92.5,58.7z M18.41,73.15h14.4c0.85,0,1.55,0.7,1.55,1.55l0,0c0,0.85-0.7,1.55-1.55,1.55h-14.4 c-0.85,0-1.55-0.7-1.55-1.55l0,0C16.86,73.85,17.56,73.15,18.41,73.15L18.41,73.15z M19.23,31.2h86.82l-3.83-15.92 c-1.05-4.85-4.07-9.05-9.05-9.05H33.06c-4.97,0-7.52,4.31-9.05,9.05L19.23,31.2v0.75V31.2L19.23,31.2z"/>
</symbol>
<symbol id="heart" viewBox="0 0 18 18">
<path d="M15.6301 3.45753C15.247 3.07428 14.7922 2.77026 14.2916 2.56284C13.791 2.35542 13.2545 2.24866 12.7126 2.24866C12.1707 2.24866 11.6342 2.35542 11.1336 2.56284C10.633 2.77026 10.1782 3.07428 9.79509 3.45753L9.00009 4.25253L8.20509 3.45753C7.43132 2.68376 6.38186 2.24906 5.28759 2.24906C4.19331 2.24906 3.14386 2.68376 2.37009 3.45753C1.59632 4.2313 1.16162 5.28075 1.16162 6.37503C1.16162 7.4693 1.59632 8.51876 2.37009 9.29253L3.16509 10.0875L9.00009 15.9225L14.8351 10.0875L15.6301 9.29253C16.0133 8.90946 16.3174 8.45464 16.5248 7.95404C16.7322 7.45345 16.839 6.91689 16.839 6.37503C16.839 5.83316 16.7322 5.2966 16.5248 4.79601C16.3174 4.29542 16.0133 3.84059 15.6301 3.45753Z" stroke-width="1.5" stroke-linecap="round" stroke-linejoin="round"/>
</symbol>
<symbol id="down" viewBox="0 0 20 20">
<path d="M5 7.5L10 12.5L15 7.5" fill="none" stroke="#121417" stroke-width="2" stroke-linecap="round" stroke-linejoin="round"/>
</symbol>
<symbol id="up" viewBox="0 0 20 20">
<path d="M5 12.5L10 7.5L15 12.5" fill="none" stroke="#121417" stroke-width="2" stroke-linecap="round" stroke-linejoin="round"/>
</symbol>
<symbol id="close" viewBox="0 0 24 24">
<path d="M18 6L6 18" stroke="#121417" stroke-width="1.8" stroke-linecap="round" stroke-linejoin="round"/>
<path d="M6 6L18 18" stroke="#121417" stroke-width="1.8" stroke-linecap="round" stroke-linejoin="round"/>
</symbol>
<symbol id="car" viewBox="0 0 102 40">
<g transform="translate(2 1)" fill="#3470FF33" fill-rule="evenodd" stroke-linecap="round" stroke-linejoin="round">
<path class="car__body" d="M47.293 2.375C52.927.792 54.017.805 54.017.805c2.613-.445 6.838-.337 9.42.237l8.381 1.863c2.59.576 6.164 2.606 7.98 4.531l6.348 6.732 6.245 1.877c3.098.508 5.609 3.431 5.609 6.507v4.206c0 .29-2.536 4.189-5.687 4.189H36.808c-2.655 0-4.34-2.1-3.688-4.67 0 0 3.71-19.944 14.173-23.902zM36.5 15.5h54.01" stroke-width="3"/>
<ellipse class="car__wheel--left" stroke-width="3.2" fill="#FFF" cx="83.493" cy="30.25" rx="6.922" ry="6.808"/>
<ellipse class="car__wheel--right" stroke-width="3.2" fill="#FFF" cx="46.511" cy="30.25" rx="6.922" ry="6.808"/>
<path class="car__line car__line--top" d="M22.5 16.5H2.475" stroke-width="3"/>
<path class="car__line car__line--middle" d="M20.5 23.5H.4755" stroke-width="3"/>
<path class="car__line car__line--bottom" d="M25.5 9.5h-19" stroke-width="3"/>
</g>
</symbol>
</defs>
</svg>